<svg width="36" height="36" viewBox="0 0 36 36" fill="none" xmlns="http://www.w3.org/2000/svg">
<path d="M36 18C36 8.04735 27.9526 0 18 0C8.04735 0 0 8.04735 0 18C0 27.9526 8.04735 36 18 36C27.9526 36 36 27.9526 36 18Z" fill="#D40C18"/>
<path d="M22.6129 24.6434H13.4123C10.9555 24.6434 8.94995 22.6378 8.94995 20.181V15.8188C8.94995 13.362 10.9555 11.3564 13.4123 11.3564H22.6129C25.0697 11.3564 27.0753 13.362 27.0753 15.8188V20.181C27.0502 22.6629 25.0697 24.6434 22.6129 24.6434Z" fill="white"/>
<path d="M21.6852 18.0501L15.6434 21.3092C15.4428 21.4094 15.1921 21.2841 15.1921 21.0334V14.4651C15.1921 14.2395 15.4428 14.0891 15.6434 14.1894L21.6852 17.4735C21.8857 17.6239 21.8857 17.9248 21.6852 18.0501Z" fill="#DB0C0B"/>
</svg>
